<mxfile host="app.diagrams.net" modified="2022-07-20T05:39:44.708Z" agent="5.0 (Windows NT 10.0; Win64; x64) AppleWebKit/537.36 (KHTML, like Gecko) Chrome/103.0.0.0 Safari/537.36" etag="j0L2hSiQH20Ol8t4mnys" version="20.1.2" type="github">
  <diagram id="prtHgNgQTEPvFCAcTncT" name="Page-1">
    <mxGraphModel dx="1935" dy="1915" grid="1" gridSize="10" guides="1" tooltips="1" connect="1" arrows="1" fold="1" page="1" pageScale="1" pageWidth="827" pageHeight="1169" math="0" shadow="0">
      <root>
        <mxCell id="0" />
        <mxCell id="1" parent="0" />
        <mxCell id="dNxyNK7c78bLwvsdeMH5-11" value="清华算法团队" style="swimlane;html=1;startSize=40;horizontal=1;containerType=tree;glass=0;fillColor=#d5e8d4;strokeColor=#82b366;" parent="1" vertex="1">
          <mxGeometry x="30" y="90" width="350" height="530" as="geometry" />
        </mxCell>
        <UserObject label="获取rgb+tof数据&lt;br&gt;（Galss 端）" name="Edward Morrison" position="Brand Manager" location="Office 2" email="me@example.com" placeholders="1" id="K5jtcFGWHod2hciiucq--11">
          <mxCell style="label;image=https://cdn3.iconfinder.com/data/icons/user-avatars-1/512/users-10-3-128.png;whiteSpace=wrap;html=1;rounded=0;glass=0;treeFolding=1;treeMoving=1;" vertex="1" parent="dNxyNK7c78bLwvsdeMH5-11">
            <mxGeometry x="70" y="80" width="180" height="80" as="geometry" />
          </mxCell>
        </UserObject>
        <mxCell id="K5jtcFGWHod2hciiucq--27" value="" style="shape=flexArrow;endArrow=classic;html=1;rounded=0;entryX=0.555;entryY=-0.05;entryDx=0;entryDy=0;entryPerimeter=0;" edge="1" parent="dNxyNK7c78bLwvsdeMH5-11">
          <mxGeometry width="50" height="50" relative="1" as="geometry">
            <mxPoint x="170" y="160" as="sourcePoint" />
            <mxPoint x="169.9000000000001" y="286" as="targetPoint" />
          </mxGeometry>
        </mxCell>
        <mxCell id="K5jtcFGWHod2hciiucq--29" value="WIFI/5G" style="edgeLabel;html=1;align=center;verticalAlign=middle;resizable=0;points=[];" vertex="1" connectable="0" parent="K5jtcFGWHod2hciiucq--27">
          <mxGeometry x="0.1779" y="9" relative="1" as="geometry">
            <mxPoint as="offset" />
          </mxGeometry>
        </mxCell>
        <UserObject label="算法模块（PC 端）" name="Edward Morrison" position="Brand Manager" location="Office 2" email="me@example.com" placeholders="1" id="K5jtcFGWHod2hciiucq--28">
          <mxCell style="label;image=https://cdn3.iconfinder.com/data/icons/user-avatars-1/512/users-10-3-128.png;whiteSpace=wrap;html=1;rounded=0;glass=0;treeFolding=1;treeMoving=1;" vertex="1" parent="dNxyNK7c78bLwvsdeMH5-11">
            <mxGeometry x="85" y="290" width="180" height="80" as="geometry" />
          </mxCell>
        </UserObject>
        <mxCell id="K5jtcFGWHod2hciiucq--34" value="" style="shape=flexArrow;endArrow=classic;html=1;rounded=0;entryX=0;entryY=0.5;entryDx=0;entryDy=0;" edge="1" parent="dNxyNK7c78bLwvsdeMH5-11" target="K5jtcFGWHod2hciiucq--33">
          <mxGeometry width="50" height="50" relative="1" as="geometry">
            <mxPoint x="260" y="320" as="sourcePoint" />
            <mxPoint x="310" y="270" as="targetPoint" />
          </mxGeometry>
        </mxCell>
        <mxCell id="K5jtcFGWHod2hciiucq--35" value="Json 算法数据" style="edgeLabel;html=1;align=center;verticalAlign=middle;resizable=0;points=[];" vertex="1" connectable="0" parent="K5jtcFGWHod2hciiucq--34">
          <mxGeometry x="-0.0742" y="6" relative="1" as="geometry">
            <mxPoint as="offset" />
          </mxGeometry>
        </mxCell>
        <mxCell id="K5jtcFGWHod2hciiucq--1" value="不鸣科技" style="swimlane;html=1;startSize=40;horizontal=1;containerType=tree;glass=0;fillColor=#ffe6cc;strokeColor=#d79b00;" vertex="1" parent="1">
          <mxGeometry x="510" y="100" width="420" height="820" as="geometry" />
        </mxCell>
        <UserObject label="WebRTC Relay&lt;br&gt;图像merge" name="Edward Morrison" position="Brand Manager" location="Office 2" email="me@example.com" placeholders="1" id="K5jtcFGWHod2hciiucq--30">
          <mxCell style="label;image=https://cdn3.iconfinder.com/data/icons/user-avatars-1/512/users-10-3-128.png;whiteSpace=wrap;html=1;rounded=0;glass=0;treeFolding=1;treeMoving=1;" vertex="1" parent="K5jtcFGWHod2hciiucq--1">
            <mxGeometry x="40" y="290" width="180" height="80" as="geometry" />
          </mxCell>
        </UserObject>
        <UserObject label="Chaos UI及渲染" name="Edward Morrison" position="Brand Manager" location="Office 2" email="me@example.com" placeholders="1" id="K5jtcFGWHod2hciiucq--33">
          <mxCell style="label;image=https://cdn3.iconfinder.com/data/icons/user-avatars-1/512/users-10-3-128.png;whiteSpace=wrap;html=1;rounded=0;glass=0;treeFolding=1;treeMoving=1;" vertex="1" parent="K5jtcFGWHod2hciiucq--1">
            <mxGeometry x="137" y="90" width="180" height="80" as="geometry" />
          </mxCell>
        </UserObject>
        <mxCell id="K5jtcFGWHod2hciiucq--36" value="" style="shape=flexArrow;endArrow=classic;html=1;rounded=0;exitX=0.5;exitY=1;exitDx=0;exitDy=0;entryX=0.555;entryY=0.009;entryDx=0;entryDy=0;entryPerimeter=0;" edge="1" parent="K5jtcFGWHod2hciiucq--1" source="K5jtcFGWHod2hciiucq--33" target="K5jtcFGWHod2hciiucq--30">
          <mxGeometry width="50" height="50" relative="1" as="geometry">
            <mxPoint x="210" y="250" as="sourcePoint" />
            <mxPoint x="260" y="200" as="targetPoint" />
          </mxGeometry>
        </mxCell>
        <mxCell id="K5jtcFGWHod2hciiucq--37" value="渲染结果" style="edgeLabel;html=1;align=center;verticalAlign=middle;resizable=0;points=[];" vertex="1" connectable="0" parent="K5jtcFGWHod2hciiucq--36">
          <mxGeometry x="-0.3473" relative="1" as="geometry">
            <mxPoint as="offset" />
          </mxGeometry>
        </mxCell>
        <UserObject label="地面端" name="Edward Morrison" position="Brand Manager" location="Office 2" email="me@example.com" placeholders="1" id="K5jtcFGWHod2hciiucq--38">
          <mxCell style="label;image=https://cdn3.iconfinder.com/data/icons/user-avatars-1/512/users-10-3-128.png;whiteSpace=wrap;html=1;rounded=0;glass=0;treeFolding=1;treeMoving=1;" vertex="1" parent="K5jtcFGWHod2hciiucq--1">
            <mxGeometry x="70" y="660" width="180" height="80" as="geometry" />
          </mxCell>
        </UserObject>
        <UserObject label="WebRTC signal&lt;br&gt;串流服务" name="Edward Morrison" position="Brand Manager" location="Office 2" email="me@example.com" placeholders="1" id="K5jtcFGWHod2hciiucq--39">
          <mxCell style="label;image=https://cdn3.iconfinder.com/data/icons/user-avatars-1/512/users-10-3-128.png;whiteSpace=wrap;html=1;rounded=0;glass=0;treeFolding=1;treeMoving=1;" vertex="1" parent="K5jtcFGWHod2hciiucq--1">
            <mxGeometry x="220" y="410" width="180" height="80" as="geometry" />
          </mxCell>
        </UserObject>
        <UserObject label="web server" name="Edward Morrison" position="Brand Manager" location="Office 2" email="me@example.com" placeholders="1" id="K5jtcFGWHod2hciiucq--42">
          <mxCell style="label;image=https://cdn3.iconfinder.com/data/icons/user-avatars-1/512/users-10-3-128.png;whiteSpace=wrap;html=1;rounded=0;glass=0;treeFolding=1;treeMoving=1;" vertex="1" parent="K5jtcFGWHod2hciiucq--1">
            <mxGeometry x="220" y="540" width="180" height="80" as="geometry" />
          </mxCell>
        </UserObject>
        <mxCell id="K5jtcFGWHod2hciiucq--45" value="" style="shape=flexArrow;endArrow=classic;html=1;rounded=0;exitX=0.5;exitY=1;exitDx=0;exitDy=0;entryX=0.342;entryY=-0.016;entryDx=0;entryDy=0;entryPerimeter=0;" edge="1" parent="K5jtcFGWHod2hciiucq--1" source="K5jtcFGWHod2hciiucq--30" target="K5jtcFGWHod2hciiucq--38">
          <mxGeometry width="50" height="50" relative="1" as="geometry">
            <mxPoint x="110" y="420" as="sourcePoint" />
            <mxPoint x="160" y="590" as="targetPoint" />
          </mxGeometry>
        </mxCell>
        <mxCell id="K5jtcFGWHod2hciiucq--46" value="推流" style="edgeLabel;html=1;align=center;verticalAlign=middle;resizable=0;points=[];" vertex="1" connectable="0" parent="K5jtcFGWHod2hciiucq--45">
          <mxGeometry x="0.0765" y="1" relative="1" as="geometry">
            <mxPoint as="offset" />
          </mxGeometry>
        </mxCell>
        <mxCell id="K5jtcFGWHod2hciiucq--5" value="Nolo&amp;nbsp;" style="swimlane;html=1;startSize=40;horizontal=1;containerType=tree;glass=0;fillColor=#e1d5e7;strokeColor=#9673a6;" vertex="1" parent="1">
          <mxGeometry x="990" y="110" width="350" height="530" as="geometry" />
        </mxCell>
        <UserObject label="硬编码 H265（PC端）" name="Edward Morrison" position="Brand Manager" location="Office 2" email="me@example.com" placeholders="1" id="K5jtcFGWHod2hciiucq--49">
          <mxCell style="label;image=https://cdn3.iconfinder.com/data/icons/user-avatars-1/512/users-10-3-128.png;whiteSpace=wrap;html=1;rounded=0;glass=0;treeFolding=1;treeMoving=1;" vertex="1" parent="K5jtcFGWHod2hciiucq--5">
            <mxGeometry x="100" y="80" width="180" height="80" as="geometry" />
          </mxCell>
        </UserObject>
        <UserObject label="解码（Glass 端）" name="Edward Morrison" position="Brand Manager" location="Office 2" email="me@example.com" placeholders="1" id="K5jtcFGWHod2hciiucq--58">
          <mxCell style="label;image=https://cdn3.iconfinder.com/data/icons/user-avatars-1/512/users-10-3-128.png;whiteSpace=wrap;html=1;rounded=0;glass=0;treeFolding=1;treeMoving=1;" vertex="1" parent="K5jtcFGWHod2hciiucq--5">
            <mxGeometry x="100" y="250" width="180" height="80" as="geometry" />
          </mxCell>
        </UserObject>
        <mxCell id="K5jtcFGWHod2hciiucq--61" value="网络传输" style="shape=flexArrow;endArrow=classic;html=1;rounded=0;exitX=0.5;exitY=1;exitDx=0;exitDy=0;" edge="1" parent="K5jtcFGWHod2hciiucq--5" source="K5jtcFGWHod2hciiucq--49" target="K5jtcFGWHod2hciiucq--58">
          <mxGeometry width="50" height="50" relative="1" as="geometry">
            <mxPoint x="180" y="210" as="sourcePoint" />
            <mxPoint x="230" y="160" as="targetPoint" />
          </mxGeometry>
        </mxCell>
        <UserObject label="渲染上屏OpenGL（Glass 端）" name="Edward Morrison" position="Brand Manager" location="Office 2" email="me@example.com" placeholders="1" id="K5jtcFGWHod2hciiucq--70">
          <mxCell style="label;image=https://cdn3.iconfinder.com/data/icons/user-avatars-1/512/users-10-3-128.png;whiteSpace=wrap;html=1;rounded=0;glass=0;treeFolding=1;treeMoving=1;" vertex="1" parent="K5jtcFGWHod2hciiucq--5">
            <mxGeometry x="100" y="400" width="180" height="80" as="geometry" />
          </mxCell>
        </UserObject>
        <mxCell id="K5jtcFGWHod2hciiucq--71" value="" style="shape=flexArrow;endArrow=classic;html=1;rounded=0;exitX=0.5;exitY=1;exitDx=0;exitDy=0;entryX=0.5;entryY=0;entryDx=0;entryDy=0;" edge="1" parent="K5jtcFGWHod2hciiucq--5" source="K5jtcFGWHod2hciiucq--58" target="K5jtcFGWHod2hciiucq--70">
          <mxGeometry width="50" height="50" relative="1" as="geometry">
            <mxPoint x="190" y="380" as="sourcePoint" />
            <mxPoint x="240" y="330" as="targetPoint" />
          </mxGeometry>
        </mxCell>
        <mxCell id="K5jtcFGWHod2hciiucq--9" value="RGB+TOF 模组" style="rounded=0;whiteSpace=wrap;html=1;" vertex="1" parent="1">
          <mxGeometry x="-170" y="180" width="120" height="60" as="geometry" />
        </mxCell>
        <mxCell id="K5jtcFGWHod2hciiucq--15" value="USB" style="shape=flexArrow;endArrow=classic;html=1;rounded=0;exitX=1;exitY=0.5;exitDx=0;exitDy=0;entryX=0;entryY=0.5;entryDx=0;entryDy=0;" edge="1" parent="1" source="K5jtcFGWHod2hciiucq--9" target="K5jtcFGWHod2hciiucq--11">
          <mxGeometry width="50" height="50" relative="1" as="geometry">
            <mxPoint x="-30" y="240" as="sourcePoint" />
            <mxPoint x="20" y="190" as="targetPoint" />
            <Array as="points">
              <mxPoint x="30" y="210" />
            </Array>
          </mxGeometry>
        </mxCell>
        <mxCell id="K5jtcFGWHod2hciiucq--16" value="Rockid" style="swimlane;html=1;startSize=40;horizontal=1;containerType=tree;glass=0;fillColor=#f5f5f5;fontColor=#333333;strokeColor=#666666;" vertex="1" parent="1">
          <mxGeometry x="360" y="-320" width="310" height="230" as="geometry" />
        </mxCell>
        <UserObject label="提供软硬件平台" name="Edward Morrison" position="Brand Manager" location="Office 2" email="me@example.com" placeholders="1" id="K5jtcFGWHod2hciiucq--20">
          <mxCell style="label;image=https://cdn3.iconfinder.com/data/icons/user-avatars-1/512/users-10-3-128.png;whiteSpace=wrap;html=1;rounded=0;glass=0;treeFolding=1;treeMoving=1;" vertex="1" parent="K5jtcFGWHod2hciiucq--16">
            <mxGeometry x="70" y="80" width="180" height="80" as="geometry" />
          </mxCell>
        </UserObject>
        <mxCell id="K5jtcFGWHod2hciiucq--21" value="t陀螺仪等其他数据" style="shape=flexArrow;endArrow=classic;html=1;rounded=0;entryX=0.611;entryY=0;entryDx=0;entryDy=0;entryPerimeter=0;exitX=0.5;exitY=1;exitDx=0;exitDy=0;" edge="1" parent="1" source="K5jtcFGWHod2hciiucq--16" target="K5jtcFGWHod2hciiucq--11">
          <mxGeometry width="50" height="50" relative="1" as="geometry">
            <mxPoint x="320" y="-140" as="sourcePoint" />
            <mxPoint x="370" y="-200" as="targetPoint" />
          </mxGeometry>
        </mxCell>
        <mxCell id="K5jtcFGWHod2hciiucq--31" value="" style="shape=flexArrow;endArrow=classic;html=1;rounded=0;entryX=0;entryY=0.5;entryDx=0;entryDy=0;exitX=1;exitY=0.5;exitDx=0;exitDy=0;" edge="1" parent="1" source="K5jtcFGWHod2hciiucq--28" target="K5jtcFGWHod2hciiucq--30">
          <mxGeometry width="50" height="50" relative="1" as="geometry">
            <mxPoint x="300" y="450" as="sourcePoint" />
            <mxPoint x="350" y="400" as="targetPoint" />
          </mxGeometry>
        </mxCell>
        <mxCell id="K5jtcFGWHod2hciiucq--32" value="RGB图像数据" style="edgeLabel;html=1;align=center;verticalAlign=middle;resizable=0;points=[];" vertex="1" connectable="0" parent="K5jtcFGWHod2hciiucq--31">
          <mxGeometry x="-0.3788" relative="1" as="geometry">
            <mxPoint as="offset" />
          </mxGeometry>
        </mxCell>
        <mxCell id="K5jtcFGWHod2hciiucq--53" value="" style="shape=flexArrow;endArrow=classic;html=1;rounded=0;entryX=0;entryY=0.5;entryDx=0;entryDy=0;" edge="1" parent="1" source="K5jtcFGWHod2hciiucq--33" target="K5jtcFGWHod2hciiucq--49">
          <mxGeometry width="50" height="50" relative="1" as="geometry">
            <mxPoint x="317" y="180" as="sourcePoint" />
            <mxPoint x="1407.7106781186549" y="330" as="targetPoint" />
          </mxGeometry>
        </mxCell>
        <mxCell id="K5jtcFGWHod2hciiucq--72" value="" style="shape=flexArrow;endArrow=classic;html=1;rounded=0;entryX=0.447;entryY=-0.007;entryDx=0;entryDy=0;entryPerimeter=0;" edge="1" parent="1" target="K5jtcFGWHod2hciiucq--5">
          <mxGeometry width="50" height="50" relative="1" as="geometry">
            <mxPoint x="510" y="-90" as="sourcePoint" />
            <mxPoint x="570" y="-90" as="targetPoint" />
          </mxGeometry>
        </mxCell>
      </root>
    </mxGraphModel>
  </diagram>
</mxfile>
